{"asset":{"generator":"Khronos glTF Blender I/O v5.1.19","version":"2.0"},"scene":0,"scenes":[{"name":"Scene","nodes":[74]}],"nodes":[{"name":"Head","rotation":[-0.20467449724674225,-2.2516417175211245e-08,-1.7280164854582836e-08,0.978830099105835],"scale":[1,1.0000001192092896,1],"translation":[-8.485399882740552e-15,0.07119113206863403,3.4458935260772705e-08]},{"children":[0],"name":"neck_01","rotation":[0.3088372051715851,5.720460993785537e-09,3.13211785396561e-08,0.9511149525642395],"scale":[1,1,0.9999999403953552],"translation":[6.891189008317866e-16,0.19815583527088165,-3.725290298461914e-08]},{"name":"index_04_leaf_l","rotation":[4.656638963318471e-10,1,-8.512626909797094e-15,3.532567006914178e-06],"scale":[1,0.9999997019767761,1],"translation":[1.926309778355062e-09,0.023510504513978958,-3.4598116371853394e-08]},{"children":[2],"name":"index_03_l","rotation":[9.058370720183007e-10,5.425438310419084e-12,-0.0001332909014308825,1],"scale":[0.9999999403953552,0.9999998807907104,1],"translation":[-8.667484507896006e-10,0.027111761271953583,-1.523781349987985e-07]},{"children":[3],"name":"index_02_l","rotation":[1.5900669225743513e-08,7.600317530886969e-08,-0.00214023026637733,0.9999977350234985],"scale":[0.9999999403953552,1,1],"translation":[5.220499588176608e-10,0.03171011433005333,-1.2765792689606315e-07]},{"children":[4],"name":"index_01_l","rotation":[-0.0033092296216636896,0.7071018218994141,-0.003309245454147458,0.7070962190628052],"translation":[0.004199855960905552,0.08823651820421219,0.036204949021339417]},{"name":"middle_04_leaf_l","rotation":[-2.7939672797572257e-09,1,9.735286781906681e-15,3.5325667795405025e-06],"translation":[-4.911271389573812e-10,0.029620535671710968,1.0628586721850297e-07]},{"children":[6],"name":"middle_03_l","rotation":[2.2644195851739823e-08,1.2621938216828e-10,-0.0032189569901674986,0.9999948143959045],"scale":[0.9999998807907104,0.9999998807907104,1],"translation":[-9.803443390410393e-09,0.029313700273633003,-2.1537131544846488e-07]},{"children":[7],"name":"middle_02_l","rotation":[-2.7246974454442352e-08,7.606735152876354e-08,0.0038676413241773844,0.9999924898147583],"translation":[6.2173057813197374e-09,0.036426931619644165,2.171485817825669e-07]},{"children":[8],"name":"middle_01_l","rotation":[-0.007979882881045341,0.7070646286010742,-0.007979928515851498,0.7070589065551758],"scale":[1,0.9999998807907104,1],"translation":[0.0018997994484379888,0.08634155988693237,0.010671660304069519]},{"name":"pinky_04_leaf_l","rotation":[-3.72528785597126e-09,1,-3.2245153812685e-13,3.65177675121231e-06],"translation":[-6.459231371991336e-09,0.02091926336288452,3.829552497336408e-08]},{"children":[10],"name":"pinky_03_l","rotation":[-2.0392192823237565e-08,-1.0558109247993386e-10,0.0028987303376197815,0.9999958276748657],"translation":[-2.7348505682311952e-09,0.026631755754351616,-4.699828366483416e-07]},{"children":[11],"name":"pinky_02_l","rotation":[1.1763213514370818e-08,7.636613474915066e-08,-0.0017048855079337955,0.9999985694885254],"scale":[0.9999999403953552,0.9999999403953552,1],"translation":[4.94765117764473e-09,0.030831919983029366,1.6265886415567365e-08]},{"children":[12],"name":"pinky_01_l","rotation":[-0.010447803884744644,0.7070325016975403,-0.010447864420711994,0.7070267200469971],"scale":[0.9999999403953552,0.9999997615814209,1],"translation":[0.003799938829615712,0.06994826346635818,-0.03399414196610451]},{"name":"ring_04_leaf_l","rotation":[2.5577548976377096e-15,1,2.0798307873029845e-14,3.6517765238386346e-06],"scale":[0.9999999403953552,0.9999996423721313,0.9999999403953552],"translation":[1.864464138634503e-10,0.028301550075411797,1.7506543770196004e-07]},{"children":[14],"name":"ring_03_l","rotation":[2.453636938071213e-08,1.320726306097697e-10,-0.003488501301035285,0.9999939203262329],"scale":[0.9999999403953552,0.9999998807907104,0.9999999403953552],"translation":[1.4388206182047725e-08,0.02760026976466179,-1.4408811921384768e-07]},{"children":[15],"name":"ring_02_l","rotation":[-1.58469859457e-08,7.549432723408245e-08,0.002474054927006364,0.9999969601631165],"scale":[1,1,0.9999999403953552],"translation":[-8.518327376805246e-09,0.03500131517648697,2.993465102463233e-07]},{"children":[16],"name":"ring_01_l","rotation":[0.0025809453800320625,0.7071049213409424,0.002580961212515831,0.707099199295044],"scale":[1,1.0000001192092896,1.0000001192092896],"translation":[0.0021998181473463774,0.08042966574430466,-0.013825268484652042]},{"name":"thumb_04_leaf_l","rotation":[5.752211507115135e-08,0.48539111018180847,8.505150361770575e-08,0.8742971420288086],"translation":[5.097535904496908e-08,0.031272683292627335,9.685754776000977e-08]},{"children":[18],"name":"thumb_03_l","rotation":[-0.0012815957888960838,5.8185123634757474e-05,0.00025457722949795425,0.9999991655349731],"scale":[0.9999999403953552,1.0000001192092896,1.0000001192092896],"translation":[2.82547262031585e-07,0.03562033921480179,-2.8870999813079834e-08]},{"children":[19],"name":"thumb_02_l","rotation":[0.0019129852298647165,0.00019224749121349305,-0.0004483271623030305,0.9999980330467224],"scale":[1,0.9999999403953552,1],"translation":[-8.527422323822975e-08,0.035820890218019485,4.6566128730773926e-09]},{"children":[20],"name":"thumb_01_l","rotation":[0.2639968693256378,0.9450141191482544,0.18827392160892487,0.04250799119472504],"scale":[1,1.0000001192092896,1],"translation":[0.009999856352806091,-0.002875849837437272,0.029958119615912437]},{"children":[5,9,13,17,21],"name":"hand_l","rotation":[-0.022376010194420815,-2.323993157915538e-06,-2.3651427483173393e-08,0.9997496008872986],"scale":[1,0.9999999403953552,1],"translation":[-1.2060158383064845e-07,0.24930405616760254,6.607479008380324e-10]},{"children":[22],"name":"lowerarm_l","rotation":[0.02380218729376793,8.211225940613076e-05,-1.8692185221880209e-06,0.9997166991233826],"scale":[1,1,0.9999999403953552],"translation":[-5.6778617363306694e-08,0.24034208059310913,-1.6589183360338211e-09]},{"children":[23],"name":"upperarm_l","rotation":[0.17232590913772583,0.6858593225479126,-0.1717943251132965,0.68584805727005],"scale":[0.9999999403953552,0.9999998807907104,1.0000001192092896],"translation":[-0.0016045529628172517,0.1410660445690155,-0.012286013923585415]},{"children":[24],"name":"clavicle_l","rotation":[-0.5471324324607849,-0.32042762637138367,-0.3912777900695801,0.6669886708259583],"translation":[0.029299991205334663,0.1337030529975891,0.04481940716505051]},{"name":"index_04_leaf_r","rotation":[-9.3132535017304e-10,-1,-4.898757028688359e-15,3.532567461661529e-06],"scale":[1,1,0.9999999403953552],"translation":[-1.4606484910473228e-09,0.023510508239269257,2.0379833642891754e-07]},{"children":[26],"name":"index_03_r","rotation":[9.064341499609441e-10,5.746181308552423e-12,0.0001332918182015419,1],"translation":[-1.4624674804508686e-09,0.02711176685988903,-3.3190147519235325e-08]},{"children":[27],"name":"index_02_r","rotation":[1.590479570268144e-08,-7.819804181963264e-08,0.0021401788108050823,0.9999977350234985],"scale":[0.9999998807907104,0.9999999403953552,0.9999999403953552],"translation":[-1.5115801943466067e-09,0.031710121780633926,1.1075989903019945e-07]},{"children":[28],"name":"index_01_r","rotation":[-0.0033092701341956854,-0.7071018218994141,0.003309286665171385,0.7070962190628052],"scale":[1.0000001192092896,1.0000001192092896,1],"translation":[-0.0042000943794846535,0.08823652565479279,0.03620495647192001]},{"name":"middle_04_leaf_r","rotation":[-2.7939679458910405e-09,-1,-1.8911260768082402e-14,3.532567461661529e-06],"translation":[3.284185368102044e-09,0.02962053380906582,1.0634181535351672e-07]},{"children":[30],"name":"middle_03_r","rotation":[2.2656841736079514e-08,1.4507649248596266e-10,0.0032189537305384874,0.9999948143959045],"scale":[0.9999998807907104,0.9999998807907104,1],"translation":[4.215507942717522e-09,0.029313700273633003,2.3132827209337847e-08]},{"children":[31],"name":"middle_02_r","rotation":[-2.7255405044002146e-08,-7.818274383453172e-08,-0.0038676648400723934,0.9999924898147583],"scale":[1,0.9999999403953552,1],"translation":[-3.941750037483871e-09,0.036426935344934464,3.363575160619803e-07]},{"children":[32],"name":"middle_01_r","rotation":[-0.007979905232787132,-0.7070646286010742,0.007979950867593288,0.7070589065551758],"scale":[1,0.9999998211860657,1],"translation":[-0.0019000378670170903,0.0863415002822876,0.010671660304069519]},{"name":"pinky_04_leaf_r","rotation":[1.8626425957180004e-09,-1,-3.351556770829489e-13,3.651776296464959e-06],"scale":[1,0.9999997019767761,1],"translation":[2.7339410735294223e-09,0.02091926336288452,1.576912893597182e-07]},{"children":[34],"name":"pinky_03_r","rotation":[-2.0401706990469393e-08,-1.2740727917126549e-10,-0.002898731268942356,0.9999958276748657],"translation":[-8.441020327154547e-09,0.026631874963641167,-3.506269763420278e-07]},{"children":[35],"name":"pinky_02_r","rotation":[1.1765982854683443e-08,-7.778101718258768e-08,0.0017049505840986967,0.9999985694885254],"scale":[0.9999999403953552,1,1],"translation":[6.893060344737023e-09,0.03083190880715847,-1.0294290575529885e-07]},{"children":[36],"name":"pinky_01_r","rotation":[-0.01044776663184166,-0.7070325016975403,0.010447826236486435,0.7070267200469971],"scale":[1,0.9999998807907104,1],"translation":[-0.0038001772481948137,0.06994832307100296,-0.03399413451552391]},{"name":"ring_04_leaf_r","rotation":[4.656585117501777e-10,-1,1.2911977802058938e-13,3.6517765238386346e-06],"translation":[-2.9813236324116588e-09,0.02830149233341217,1.754124099306864e-07]},{"children":[38],"name":"ring_03_r","rotation":[2.4557998301588668e-08,1.4608199372379005e-10,0.0034885017666965723,0.9999939203262329],"scale":[0.9999999403953552,0.9999999403953552,0.9999999403953552],"translation":[-1.4621036825701594e-08,0.027600212022662163,-1.4367303435847134e-07]},{"children":[39],"name":"ring_02_r","rotation":[-1.5855107449169736e-08,-7.87235592270008e-08,-0.00247406424023211,0.9999969601631165],"scale":[1,1,0.9999999403953552],"translation":[8.722963684704155e-09,0.03500131890177727,4.1855568611026683e-07]},{"children":[40],"name":"ring_01_r","rotation":[0.0025809365324676037,-0.7071049213409424,-0.002580953761935234,0.707099199295044],"scale":[1.0000001192092896,1,1],"translation":[-0.002200056565925479,0.08042966574430466,-0.01382527220994234]},{"name":"thumb_04_leaf_r","rotation":[1.04391986610608e-07,-0.48539113998413086,-5.888694332156774e-08,0.8742971420288086],"scale":[0.9999999403953552,1,1],"translation":[-4.807952791452408e-08,0.03127266839146614,1.3783574104309082e-07]},{"children":[42],"name":"thumb_03_r","rotation":[-0.0012817896204069257,-5.808524292660877e-05,-0.00025415021809749305,0.9999991655349731],"scale":[0.9999999403953552,1,1],"translation":[-4.6263085096143186e-07,0.03562031686306,-6.05359673500061e-09]},{"children":[43],"name":"thumb_02_r","rotation":[0.001912627718411386,-0.00019214203348383307,0.00044892344158142805,0.9999980330467224],"scale":[1,0.9999998807907104,0.9999999403953552],"translation":[-8.486676961183548e-08,0.035820916295051575,-2.1420419216156006e-08]},{"children":[44],"name":"thumb_01_r","rotation":[0.26399779319763184,-0.9450138807296753,-0.18827372789382935,0.042507655918598175],"scale":[1.0000001192092896,1.0000003576278687,1],"translation":[-0.010000094771385193,-0.0028758449479937553,0.029958125203847885]},{"children":[29,33,37,41,45],"name":"hand_r","rotation":[-0.022376015782356262,2.3239933852892136e-06,2.365111129165598e-08,0.9997496008872986],"translation":[1.392812976064306e-09,0.24930396676063538,-6.971731636440381e-09]},{"children":[46],"name":"lowerarm_r","rotation":[0.02380221150815487,-8.21109424578026e-05,1.8723325183600537e-06,0.9997166991233826],"translation":[-1.8423565961711574e-07,0.2403421252965927,-5.195033736526966e-09]},{"children":[47],"name":"upperarm_r","rotation":[0.17232587933540344,-0.6858593225479126,0.17179431021213531,0.68584805727005],"scale":[1,1.0000001192092896,1.0000001192092896],"translation":[0.001604556106030941,0.1410660445690155,-0.01228613406419754]},{"children":[48],"name":"clavicle_r","rotation":[-0.5471324324607849,0.3204275667667389,0.3912777602672577,0.666988730430603],"scale":[0.9999999403953552,1,1],"translation":[-0.02929999865591526,0.1337030529975891,0.04481937736272812]},{"children":[1,25,49],"name":"spine_03","rotation":[-0.10099762678146362,-3.361323308581632e-08,-1.304816787950358e-08,0.9948866963386536],"translation":[2.4143013976907213e-15,0.12640145421028137,-1.4901161193847656e-08]},{"children":[50],"name":"spine_02","rotation":[-0.05572862923145294,-4.984097176929936e-05,-2.7909743494092254e-06,0.998445987701416],"scale":[1,0.9999998807907104,0.9999999403953552],"translation":[-1.1426440306092078e-12,0.1103447675704956,1.792795956134796e-08]},{"children":[51],"name":"spine_01","rotation":[-0.06393158435821533,4.977786375093274e-05,-3.204262611689046e-06,0.9979543089866638],"translation":[-1.3607405133231332e-12,0.12655523419380188,-7.264316082000732e-08]},{"name":"ball_leaf_l","rotation":[-1.9367938364212023e-09,0.0001727771887090057,-3.2183240447625217e-12,1],"translation":[1.2304519625416788e-09,0.06809969246387482,-6.31068530765333e-10]},{"children":[53],"name":"ball_l","rotation":[-3.2927269785432145e-05,0.9816133379936218,-0.19088023900985718,0.0001697494153631851],"scale":[1,1.0000001192092896,0.9999998211860657],"translation":[1.5736937086785474e-08,0.1491694152355194,-1.858898457385294e-08]},{"children":[54],"name":"foot_l","rotation":[-0.5978575348854065,1.3927991915352322e-07,-1.5122979846182716e-07,0.8016024231910706],"scale":[1,0.9999999403953552,0.9999998807907104],"translation":[8.338583157296853e-09,0.4661003649234772,-2.818452138342309e-09]},{"children":[55],"name":"calf_l","rotation":[0.07122272998094559,-2.5442346895943047e-08,5.6580704566044915e-09,0.9974604249000549],"scale":[1,0.9999999403953552,1],"translation":[-1.0260367666603543e-08,0.4098643362522125,4.6986237123292085e-09]},{"children":[56],"name":"thigh_l","rotation":[0.9893750548362732,-9.795000366352724e-09,1.8341077634431713e-07,0.1453859955072403],"scale":[1,1.0000001192092896,1.0000027418136597],"translation":[0.11139998584985733,0.010460044257342815,-0.008893008343875408]},{"name":"ball_leaf_r","rotation":[-1.9367938364212023e-09,0.0001727771887090057,-3.2254294721201227e-12,1],"translation":[1.2304537388985182e-09,0.06809969246387482,-9.948664114745043e-10]},{"children":[58],"name":"ball_r","rotation":[-3.2927269785432145e-05,0.9816133379936218,-0.19088023900985718,0.0001697494153631851],"scale":[1,1.0000001192092896,0.9999998211860657],"translation":[-1.4065387077266678e-08,0.1491694152355194,-1.6801273261535243e-08]},{"children":[59],"name":"foot_r","rotation":[-0.5978575348854065,1.392799049426685e-07,-1.5122981267268187e-07,0.8016024231910706],"scale":[1,0.9999999403953552,0.9999998807907104],"translation":[-6.562578480640013e-09,0.4661003649234772,-5.563451033196998e-09]},{"children":[60],"name":"calf_r","rotation":[0.07122272998094559,-2.5442346895943047e-08,5.6580704566044915e-09,0.9974604249000549],"scale":[1,0.9999999403953552,1],"translation":[4.640793527244114e-09,0.4098643362522125,4.614602033825577e-09]},{"children":[61],"name":"thigh_r","rotation":[0.9893750548362732,-9.795000366352724e-09,1.8341077634431713e-07,0.1453859955072403],"scale":[1,1.0000001192092896,1.0000027418136597],"translation":[-0.11139998584985733,0.010460044257342815,-0.008893062360584736]},{"children":[52,57,62],"name":"pelvis","rotation":[0.7879695892333984,7.397003543019309e-08,9.466427997040228e-08,0.6157141327857971],"translation":[0,0.04569995403289795,0.9317998886108398]},{"children":[63],"name":"root","rotation":[-0.7071067690849304,0,0,0.7071067690849304]},{"mesh":0,"name":"Female_Ranger_Acc_Pauldrons","skin":0},{"mesh":1,"name":"Female_Ranger_Arms","skin":0},{"mesh":2,"name":"Female_Ranger_Arms_Bracer","skin":0},{"mesh":3,"name":"Female_Ranger_Body","skin":0},{"mesh":4,"name":"Female_Ranger_Body_Belt_1","skin":0},{"mesh":5,"name":"Female_Ranger_Body_Belt_2","skin":0},{"mesh":6,"name":"Female_Ranger_Feet","skin":0},{"mesh":7,"name":"Female_Ranger_Head_Hood","skin":0},{"mesh":8,"name":"Female_Ranger_Legs","skin":0},{"children":[65,66,67,68,69,70,71,72,73,64],"name":"Armature.001"}],"materials":[{"doubleSided":true,"name":"MI_Ranger","normalTexture":{"index":0},"pbrMetallicRoughness":{"baseColorTexture":{"index":1},"metallicRoughnessTexture":{"index":2}}},{"doubleSided":true,"name":"MI_Regular_Female","normalTexture":{"index":3},"pbrMetallicRoughness":{"baseColorTexture":{"index":4},"metallicFactor":0,"metallicRoughnessTexture":{"index":5}}}],"meshes":[{"name":"Female_Ranger_Acc_Pauldrons","primitives":[{"attributes":{"POSITION":0,"NORMAL":1,"TEXCOORD_0":2,"COLOR_0":3,"COLOR_1":4,"COLOR_2":5,"JOINTS_0":6,"WEIGHTS_0":7},"indices":8,"material":0}]},{"name":"Female_Ranger_Arms","primitives":[{"attributes":{"POSITION":10,"NORMAL":11,"TEXCOORD_0":12,"COLOR_0":13,"COLOR_1":14,"COLOR_2":15,"JOINTS_0":16,"WEIGHTS_0":17},"indices":18,"material":0},{"attributes":{"POSITION":19,"NORMAL":20,"TEXCOORD_0":21,"COLOR_0":22,"COLOR_1":23,"COLOR_2":24,"JOINTS_0":25,"WEIGHTS_0":26},"indices":27,"material":1}]},{"name":"Female_Ranger_Arms_Bracer","primitives":[{"attributes":{"POSITION":28,"NORMAL":29,"TEXCOORD_0":30,"COLOR_0":31,"COLOR_1":32,"COLOR_2":33,"JOINTS_0":34,"WEIGHTS_0":35},"indices":36,"material":0}]},{"name":"Female_Ranger_Body","primitives":[{"attributes":{"POSITION":37,"NORMAL":38,"TEXCOORD_0":39,"COLOR_0":40,"COLOR_1":41,"COLOR_2":42,"JOINTS_0":43,"WEIGHTS_0":44},"indices":45,"material":0}]},{"name":"Female_Ranger_Body_Belt_1","primitives":[{"attributes":{"POSITION":46,"NORMAL":47,"TEXCOORD_0":48,"COLOR_0":49,"COLOR_1":50,"COLOR_2":51,"COLOR_3":52,"JOINTS_0":53,"WEIGHTS_0":54},"indices":55,"material":0}]},{"name":"Female_Ranger_Body_Belt_2","primitives":[{"attributes":{"POSITION":56,"NORMAL":57,"TEXCOORD_0":58,"COLOR_0":59,"COLOR_1":60,"COLOR_2":61,"JOINTS_0":62,"WEIGHTS_0":63},"indices":64,"material":0}]},{"name":"Female_Ranger_Feet","primitives":[{"attributes":{"POSITION":65,"NORMAL":66,"TEXCOORD_0":67,"COLOR_0":68,"COLOR_1":69,"COLOR_2":70,"JOINTS_0":71,"WEIGHTS_0":72},"indices":73,"material":0}]},{"name":"Female_Ranger_Head_Hood","primitives":[{"attributes":{"POSITION":74,"NORMAL":75,"TEXCOORD_0":76,"COLOR_0":77,"COLOR_1":78,"COLOR_2":79,"JOINTS_0":80,"WEIGHTS_0":81},"indices":82,"material":0}]},{"name":"Female_Ranger_Legs","primitives":[{"attributes":{"POSITION":83,"NORMAL":84,"TEXCOORD_0":85,"COLOR_0":86,"COLOR_1":87,"COLOR_2":88,"JOINTS_0":89,"WEIGHTS_0":90},"indices":91,"material":0}]}],"textures":[{"sampler":0,"source":0},{"sampler":0,"source":1},{"sampler":0,"source":2},{"sampler":0,"source":3},{"sampler":0,"source":4},{"sampler":0,"source":5}],"images":[{"mimeType":"image/png","name":"T_Ranger_Normal","uri":"../T_Ranger_Normal.png"},{"mimeType":"image/png","name":"T_Ranger_BaseColor","uri":"../T_Ranger_BaseColor.png"},{"mimeType":"image/png","name":"T_Ranger_ORM","uri":"../T_Ranger_ORM.png"},{"mimeType":"image/png","name":"T_Regular_Female_Normal","uri":"../T_Regular_Female_Normal.png"},{"mimeType":"image/png","name":"T_Regular_Female_Dark_BaseColor","uri":"../T_Regular_Female_Dark_BaseColor.png"},{"mimeType":"image/png","name":"T_Regular_Female_Roughness","uri":"../T_Regular_Female_Roughness.png"}],"skins":[{"inverseBindMatrices":9,"joints":[64,63,52,51,50,1,0,25,24,23,22,5,4,3,2,9,8,7,6,13,12,11,10,17,16,15,14,21,20,19,18,49,48,47,46,29,28,27,26,33,32,31,30,37,36,35,34,41,40,39,38,45,44,43,42,57,56,55,54,53,62,61,60,59,58],"name":"Armature.001"}],"accessors":[{"bufferView":0,"componentType":5126,"count":18450,"max":[0.3456403315067291,1.5228017568588257,0.029003746807575226],"min":[0.0803152322769165,1.3969862461090088,-0.1635221689939499],"type":"VEC3"},{"bufferView":1,"componentType":5126,"count":18450,"type":"VEC3"},{"bufferView":2,"componentType":5126,"count":18450,"type":"VEC2"},{"bufferView":3,"componentType":5126,"count":18450,"type":"VEC3"},{"bufferView":4,"componentType":5123,"count":18450,"normalized":true,"type":"VEC4"},{"bufferView":5,"componentType":5123,"count":18450,"normalized":true,"type":"VEC4"},{"bufferView":6,"componentType":5121,"count":18450,"type":"VEC4"},{"bufferView":7,"componentType":5126,"count":18450,"type":"VEC4"},{"bufferView":8,"componentType":5123,"count":99072,"type":"SCALAR"},{"bufferView":9,"componentType":5126,"count":65,"type":"MAT4"},{"bufferView":10,"componentType":5126,"count":37078,"max":[0.8271709680557251,1.5097604990005493,0.07927539944648743],"min":[-0.8286083936691284,1.2764464616775513,-0.1378844976425171],"type":"VEC3"},{"bufferView":11,"componentType":5126,"count":37078,"type":"VEC3"},{"bufferView":12,"componentType":5126,"count":37078,"type":"VEC2"},{"bufferView":13,"componentType":5126,"count":37078,"type":"VEC3"},{"bufferView":14,"componentType":5123,"count":37078,"normalized":true,"type":"VEC4"},{"bufferView":15,"componentType":5123,"count":37078,"normalized":true,"type":"VEC4"},{"bufferView":16,"componentType":5121,"count":37078,"type":"VEC4"},{"bufferView":17,"componentType":5126,"count":37078,"type":"VEC4"},{"bufferView":18,"componentType":5123,"count":216000,"type":"SCALAR"},{"bufferView":19,"componentType":5126,"count":23468,"max":[0.8319412469863892,1.4291000366210938,0.023583045229315758],"min":[-0.8319412469863892,1.3525662422180176,-0.09866566210985184],"type":"VEC3"},{"bufferView":20,"componentType":5126,"count":23468,"type":"VEC3"},{"bufferView":21,"componentType":5126,"count":23468,"type":"VEC2"},{"bufferView":22,"componentType":5126,"count":23468,"type":"VEC3"},{"bufferView":23,"componentType":5123,"count":23468,"normalized":true,"type":"VEC4"},{"bufferView":24,"componentType":5123,"count":23468,"normalized":true,"type":"VEC4"},{"bufferView":25,"componentType":5121,"count":23468,"type":"VEC4"},{"bufferView":26,"componentType":5126,"count":23468,"type":"VEC4"},{"bufferView":27,"componentType":5123,"count":134784,"type":"SCALAR"},{"bufferView":28,"componentType":5126,"count":63164,"max":[0.7119393348693848,1.4830243587493896,0.02649620920419693],"min":[-0.7119393944740295,1.3488892316818237,-0.11804305016994476],"type":"VEC3"},{"bufferView":29,"componentType":5126,"count":63164,"type":"VEC3"},{"bufferView":30,"componentType":5126,"count":63164,"type":"VEC2"},{"bufferView":31,"componentType":5126,"count":63164,"type":"VEC3"},{"bufferView":32,"componentType":5123,"count":63164,"normalized":true,"type":"VEC4"},{"bufferView":33,"componentType":5123,"count":63164,"normalized":true,"type":"VEC4"},{"bufferView":34,"componentType":5121,"count":63164,"type":"VEC4"},{"bufferView":35,"componentType":5126,"count":63164,"type":"VEC4"},{"bufferView":36,"componentType":5123,"count":261792,"type":"SCALAR"},{"bufferView":37,"componentType":5126,"count":43089,"max":[0.26052963733673096,1.6159467697143555,0.16357320547103882],"min":[-0.26053059101104736,0.886705219745636,-0.18152514100074768],"type":"VEC3"},{"bufferView":38,"componentType":5126,"count":43089,"type":"VEC3"},{"bufferView":39,"componentType":5126,"count":43089,"type":"VEC2"},{"bufferView":40,"componentType":5126,"count":43089,"type":"VEC3"},{"bufferView":41,"componentType":5123,"count":43089,"normalized":true,"type":"VEC4"},{"bufferView":42,"componentType":5123,"count":43089,"normalized":true,"type":"VEC4"},{"bufferView":43,"componentType":5121,"count":43089,"type":"VEC4"},{"bufferView":44,"componentType":5126,"count":43089,"type":"VEC4"},{"bufferView":45,"componentType":5123,"count":213264,"type":"SCALAR"},{"bufferView":46,"componentType":5126,"count":15948,"max":[0.13526058197021484,1.2166638374328613,0.1461740881204605],"min":[-0.13869178295135498,1.0808063745498657,-0.09336251020431519],"type":"VEC3"},{"bufferView":47,"componentType":5126,"count":15948,"type":"VEC3"},{"bufferView":48,"componentType":5126,"count":15948,"type":"VEC2"},{"bufferView":49,"componentType":5126,"count":15948,"type":"VEC3"},{"bufferView":50,"componentType":5123,"count":15948,"normalized":true,"type":"VEC4"},{"bufferView":51,"componentType":5123,"count":15948,"normalized":true,"type":"VEC4"},{"bufferView":52,"componentType":5123,"count":15948,"normalized":true,"type":"VEC4"},{"bufferView":53,"componentType":5121,"count":15948,"type":"VEC4"},{"bufferView":54,"componentType":5126,"count":15948,"type":"VEC4"},{"bufferView":55,"componentType":5123,"count":57888,"type":"SCALAR"},{"bufferView":56,"componentType":5126,"count":14108,"max":[0.13490243256092072,1.2432622909545898,0.13128112256526947],"min":[-0.13416190445423126,1.0263527631759644,-0.09635771065950394],"type":"VEC3"},{"bufferView":57,"componentType":5126,"count":14108,"type":"VEC3"},{"bufferView":58,"componentType":5126,"count":14108,"type":"VEC2"},{"bufferView":59,"componentType":5126,"count":14108,"type":"VEC3"},{"bufferView":60,"componentType":5123,"count":14108,"normalized":true,"type":"VEC4"},{"bufferView":61,"componentType":5123,"count":14108,"normalized":true,"type":"VEC4"},{"bufferView":62,"componentType":5121,"count":14108,"type":"VEC4"},{"bufferView":63,"componentType":5126,"count":14108,"type":"VEC4"},{"bufferView":64,"componentType":5123,"count":57888,"type":"SCALAR"},{"bufferView":65,"componentType":5126,"count":139973,"max":[0.21092836558818817,0.556414783000946,0.20205268263816833],"min":[-0.21092836558818817,-0.029787268489599228,-0.17907023429870605],"type":"VEC3"},{"bufferView":66,"componentType":5126,"count":139973,"type":"VEC3"},{"bufferView":67,"componentType":5126,"count":139973,"type":"VEC2"},{"bufferView":68,"componentType":5126,"count":139973,"type":"VEC3"},{"bufferView":69,"componentType":5123,"count":139973,"normalized":true,"type":"VEC4"},{"bufferView":70,"componentType":5123,"count":139973,"normalized":true,"type":"VEC4"},{"bufferView":71,"componentType":5121,"count":139973,"type":"VEC4"},{"bufferView":72,"componentType":5126,"count":139973,"type":"VEC4"},{"bufferView":73,"componentType":5125,"count":660384,"type":"SCALAR"},{"bufferView":74,"componentType":5126,"count":26302,"max":[0.16995735466480255,1.7940789461135864,0.1321496069431305],"min":[-0.16274534165859222,1.398415446281433,-0.20963004231452942],"type":"VEC3"},{"bufferView":75,"componentType":5126,"count":26302,"type":"VEC3"},{"bufferView":76,"componentType":5126,"count":26302,"type":"VEC2"},{"bufferView":77,"componentType":5126,"count":26302,"type":"VEC3"},{"bufferView":78,"componentType":5123,"count":26302,"normalized":true,"type":"VEC4"},{"bufferView":79,"componentType":5123,"count":26302,"normalized":true,"type":"VEC4"},{"bufferView":80,"componentType":5121,"count":26302,"type":"VEC4"},{"bufferView":81,"componentType":5126,"count":26302,"type":"VEC4"},{"bufferView":82,"componentType":5123,"count":153792,"type":"SCALAR"},{"bufferView":83,"componentType":5126,"count":14786,"max":[0.2229996621608734,1.136587142944336,0.10676122456789017],"min":[-0.22299954295158386,0.33308061957359314,-0.1806597113609314],"type":"VEC3"},{"bufferView":84,"componentType":5126,"count":14786,"type":"VEC3"},{"bufferView":85,"componentType":5126,"count":14786,"type":"VEC2"},{"bufferView":86,"componentType":5126,"count":14786,"type":"VEC3"},{"bufferView":87,"componentType":5123,"count":14786,"normalized":true,"type":"VEC4"},{"bufferView":88,"componentType":5123,"count":14786,"normalized":true,"type":"VEC4"},{"bufferView":89,"componentType":5121,"count":14786,"type":"VEC4"},{"bufferView":90,"componentType":5126,"count":14786,"type":"VEC4"},{"bufferView":91,"componentType":5123,"count":86688,"type":"SCALAR"}],"bufferViews":[{"buffer":0,"byteLength":221400,"byteOffset":0,"target":34962},{"buffer":0,"byteLength":221400,"byteOffset":221400,"target":34962},{"buffer":0,"byteLength":147600,"byteOffset":442800,"target":34962},{"buffer":0,"byteLength":221400,"byteOffset":590400,"target":34962},{"buffer":0,"byteLength":147600,"byteOffset":811800,"target":34962},{"buffer":0,"byteLength":147600,"byteOffset":959400,"target":34962},{"buffer":0,"byteLength":73800,"byteOffset":1107000,"target":34962},{"buffer":0,"byteLength":295200,"byteOffset":1180800,"target":34962},{"buffer":0,"byteLength":198144,"byteOffset":1476000,"target":34963},{"buffer":0,"byteLength":4160,"byteOffset":1674144},{"buffer":0,"byteLength":444936,"byteOffset":1678304,"target":34962},{"buffer":0,"byteLength":444936,"byteOffset":2123240,"target":34962},{"buffer":0,"byteLength":296624,"byteOffset":2568176,"target":34962},{"buffer":0,"byteLength":444936,"byteOffset":2864800,"target":34962},{"buffer":0,"byteLength":296624,"byteOffset":3309736,"target":34962},{"buffer":0,"byteLength":296624,"byteOffset":3606360,"target":34962},{"buffer":0,"byteLength":148312,"byteOffset":3902984,"target":34962},{"buffer":0,"byteLength":593248,"byteOffset":4051296,"target":34962},{"buffer":0,"byteLength":432000,"byteOffset":4644544,"target":34963},{"buffer":0,"byteLength":281616,"byteOffset":5076544,"target":34962},{"buffer":0,"byteLength":281616,"byteOffset":5358160,"target":34962},{"buffer":0,"byteLength":187744,"byteOffset":5639776,"target":34962},{"buffer":0,"byteLength":281616,"byteOffset":5827520,"target":34962},{"buffer":0,"byteLength":187744,"byteOffset":6109136,"target":34962},{"buffer":0,"byteLength":187744,"byteOffset":6296880,"target":34962},{"buffer":0,"byteLength":93872,"byteOffset":6484624,"target":34962},{"buffer":0,"byteLength":375488,"byteOffset":6578496,"target":34962},{"buffer":0,"byteLength":269568,"byteOffset":6953984,"target":34963},{"buffer":0,"byteLength":757968,"byteOffset":7223552,"target":34962},{"buffer":0,"byteLength":757968,"byteOffset":7981520,"target":34962},{"buffer":0,"byteLength":505312,"byteOffset":8739488,"target":34962},{"buffer":0,"byteLength":757968,"byteOffset":9244800,"target":34962},{"buffer":0,"byteLength":505312,"byteOffset":10002768,"target":34962},{"buffer":0,"byteLength":505312,"byteOffset":10508080,"target":34962},{"buffer":0,"byteLength":252656,"byteOffset":11013392,"target":34962},{"buffer":0,"byteLength":1010624,"byteOffset":11266048,"target":34962},{"buffer":0,"byteLength":523584,"byteOffset":12276672,"target":34963},{"buffer":0,"byteLength":517068,"byteOffset":12800256,"target":34962},{"buffer":0,"byteLength":517068,"byteOffset":13317324,"target":34962},{"buffer":0,"byteLength":344712,"byteOffset":13834392,"target":34962},{"buffer":0,"byteLength":517068,"byteOffset":14179104,"target":34962},{"buffer":0,"byteLength":344712,"byteOffset":14696172,"target":34962},{"buffer":0,"byteLength":344712,"byteOffset":15040884,"target":34962},{"buffer":0,"byteLength":172356,"byteOffset":15385596,"target":34962},{"buffer":0,"byteLength":689424,"byteOffset":15557952,"target":34962},{"buffer":0,"byteLength":426528,"byteOffset":16247376,"target":34963},{"buffer":0,"byteLength":191376,"byteOffset":16673904,"target":34962},{"buffer":0,"byteLength":191376,"byteOffset":16865280,"target":34962},{"buffer":0,"byteLength":127584,"byteOffset":17056656,"target":34962},{"buffer":0,"byteLength":191376,"byteOffset":17184240,"target":34962},{"buffer":0,"byteLength":127584,"byteOffset":17375616,"target":34962},{"buffer":0,"byteLength":127584,"byteOffset":17503200,"target":34962},{"buffer":0,"byteLength":127584,"byteOffset":17630784,"target":34962},{"buffer":0,"byteLength":63792,"byteOffset":17758368,"target":34962},{"buffer":0,"byteLength":255168,"byteOffset":17822160,"target":34962},{"buffer":0,"byteLength":115776,"byteOffset":18077328,"target":34963},{"buffer":0,"byteLength":169296,"byteOffset":18193104,"target":34962},{"buffer":0,"byteLength":169296,"byteOffset":18362400,"target":34962},{"buffer":0,"byteLength":112864,"byteOffset":18531696,"target":34962},{"buffer":0,"byteLength":169296,"byteOffset":18644560,"target":34962},{"buffer":0,"byteLength":112864,"byteOffset":18813856,"target":34962},{"buffer":0,"byteLength":112864,"byteOffset":18926720,"target":34962},{"buffer":0,"byteLength":56432,"byteOffset":19039584,"target":34962},{"buffer":0,"byteLength":225728,"byteOffset":19096016,"target":34962},{"buffer":0,"byteLength":115776,"byteOffset":19321744,"target":34963},{"buffer":0,"byteLength":1679676,"byteOffset":19437520,"target":34962},{"buffer":0,"byteLength":1679676,"byteOffset":21117196,"target":34962},{"buffer":0,"byteLength":1119784,"byteOffset":22796872,"target":34962},{"buffer":0,"byteLength":1679676,"byteOffset":23916656,"target":34962},{"buffer":0,"byteLength":1119784,"byteOffset":25596332,"target":34962},{"buffer":0,"byteLength":1119784,"byteOffset":26716116,"target":34962},{"buffer":0,"byteLength":559892,"byteOffset":27835900,"target":34962},{"buffer":0,"byteLength":2239568,"byteOffset":28395792,"target":34962},{"buffer":0,"byteLength":2641536,"byteOffset":30635360,"target":34963},{"buffer":0,"byteLength":315624,"byteOffset":33276896,"target":34962},{"buffer":0,"byteLength":315624,"byteOffset":33592520,"target":34962},{"buffer":0,"byteLength":210416,"byteOffset":33908144,"target":34962},{"buffer":0,"byteLength":315624,"byteOffset":34118560,"target":34962},{"buffer":0,"byteLength":210416,"byteOffset":34434184,"target":34962},{"buffer":0,"byteLength":210416,"byteOffset":34644600,"target":34962},{"buffer":0,"byteLength":105208,"byteOffset":34855016,"target":34962},{"buffer":0,"byteLength":420832,"byteOffset":34960224,"target":34962},{"buffer":0,"byteLength":307584,"byteOffset":35381056,"target":34963},{"buffer":0,"byteLength":177432,"byteOffset":35688640,"target":34962},{"buffer":0,"byteLength":177432,"byteOffset":35866072,"target":34962},{"buffer":0,"byteLength":118288,"byteOffset":36043504,"target":34962},{"buffer":0,"byteLength":177432,"byteOffset":36161792,"target":34962},{"buffer":0,"byteLength":118288,"byteOffset":36339224,"target":34962},{"buffer":0,"byteLength":118288,"byteOffset":36457512,"target":34962},{"buffer":0,"byteLength":59144,"byteOffset":36575800,"target":34962},{"buffer":0,"byteLength":236576,"byteOffset":36634944,"target":34962},{"buffer":0,"byteLength":173376,"byteOffset":36871520,"target":34963}],"samplers":[{"magFilter":9729,"minFilter":9987}],"buffers":[{"byteLength":37044896,"uri":"Female_Ranger_Fitted.bin"}]}