{"asset":{"generator":"Khronos glTF Blender I/O v5.1.19","version":"2.0"},"scene":0,"scenes":[{"name":"Scene","nodes":[74]}],"nodes":[{"name":"Head","rotation":[-0.13207001984119415,-2.3796486559035657e-08,-5.630572008641366e-09,0.991240382194519],"scale":[1,0.9999998211860657,0.9999998807907104],"translation":[2.316609699752094e-16,0.08285234123468399,5.587935447692871e-09]},{"children":[0],"name":"neck_01","rotation":[0.2572590708732605,3.399296621964254e-09,1.6238789868339154e-08,0.9663425087928772],"scale":[1,0.9999999403953552,0.9999999403953552],"translation":[3.895396951238226e-15,0.21509291231632233,-4.842877388000488e-08]},{"name":"index_04_leaf_l","rotation":[9.313214088813027e-10,-1,1.2267271125640652e-15,3.65177675121231e-06],"translation":[3.993591235484928e-09,0.0241100937128067,4.611426618339465e-08]},{"children":[2],"name":"index_03_l","rotation":[-1.4057814912149524e-09,3.5549341248497512e-12,-0.00018567639926914126,1],"scale":[1,0.9999999403953552,1],"translation":[1.2014425010420382e-09,0.0279114730656147,4.369810824300657e-08]},{"children":[3],"name":"index_02_l","rotation":[-6.650354045234508e-09,-1.3381576025039976e-07,-0.0005329568521119654,0.9999998807907104],"scale":[1,1.0000001192092896,1],"translation":[1.7471393221057951e-09,0.032612428069114685,1.5463675140381383e-07]},{"children":[4],"name":"index_01_l","rotation":[-0.009757905267179012,0.7070369720458984,-0.00975783634930849,0.7070419788360596],"scale":[0.9999999403953552,0.9999999403953552,1],"translation":[0.009400003589689732,0.11500027775764465,0.03249999135732651]},{"name":"middle_04_leaf_l","rotation":[2.7939657254449912e-09,-1,1.1832651320624419e-14,3.532567461661529e-06],"translation":[5.451511242426932e-09,0.03051995113492012,2.524155604533007e-07]},{"children":[6],"name":"middle_03_l","rotation":[-1.0748843592978119e-08,2.2919912495700245e-11,-0.001419717213138938,0.9999989867210388],"scale":[0.9999998807907104,0.9999998807907104,1],"translation":[5.451511242426932e-09,0.03011685609817505,1.146096479942571e-07]},{"children":[7],"name":"middle_02_l","rotation":[1.7467387536385104e-08,-1.4552026250669314e-08,0.0020526961889117956,0.9999979138374329],"translation":[-9.285940905101597e-10,0.03752632811665535,2.5451384999541915e-08]},{"children":[8],"name":"middle_01_l","rotation":[-0.013192469254136086,0.7069811224937439,-0.013192365877330303,0.7069863080978394],"scale":[0.9999999403953552,0.9999999403953552,1],"translation":[0.006999839097261429,0.11260012537240982,0.00699999276548624]},{"name":"pinky_04_leaf_l","rotation":[-3.725292518907963e-09,-1,-9.279855800892883e-15,3.532567006914178e-06],"translation":[5.637957656290382e-09,0.021523118019104004,1.7332729385088896e-07]},{"children":[10],"name":"pinky_03_l","rotation":[3.527103054068448e-09,-7.999379804390916e-12,0.00046587182441726327,0.9999998807907104],"translation":[-5.538822733797133e-09,0.027430804446339607,6.005575414747e-08]},{"children":[11],"name":"pinky_02_l","rotation":[-1.6152597481777775e-08,-1.4655301860955205e-08,-0.0015673639718443155,0.9999988079071045],"scale":[0.9999999403953552,0.9999999403953552,1],"translation":[1.4566467143595219e-08,0.03163113817572594,2.742883964401699e-07]},{"children":[12],"name":"pinky_01_l","rotation":[-0.015652364119887352,0.706930935382843,-0.01565225049853325,0.7069361209869385],"translation":[0.008999803103506565,0.09510008990764618,-0.042500004172325134]},{"name":"ring_04_leaf_l","rotation":[1.280568540096283e-07,-1,-5.202873722132129e-13,3.5325672342878534e-06],"translation":[-9.980794857256114e-09,0.029101625084877014,1.0059721944344346e-08]},{"children":[14],"name":"ring_03_l","rotation":[-2.5649059764987214e-08,5.967350225066781e-11,-0.003387593664228916,0.9999942779541016],"scale":[0.9999999403953552,0.9999998807907104,1],"translation":[-1.7429556464776397e-08,0.02830030582845211,-1.5298195421564742e-07]},{"children":[15],"name":"ring_02_l","rotation":[1.7322602019476108e-08,-1.4772452594513652e-08,0.0023996829986572266,0.9999971389770508],"translation":[5.2159521146677434e-09,0.036001503467559814,-1.2196969123579038e-07]},{"children":[16],"name":"ring_01_l","rotation":[-0.0029462454840540886,0.7070980072021484,-0.0029462238308042288,0.7071032524108887],"scale":[1,1.0000001192092896,1],"translation":[0.007300002500414848,0.10620025545358658,-0.020400002598762512]},{"name":"thumb_04_leaf_l","rotation":[-6.183532974546324e-08,0.4282083213329315,-7.2141217444254835e-09,0.9036800265312195],"translation":[9.790528565645218e-08,0.03459959477186203,4.330649971961975e-08]},{"children":[18],"name":"thumb_03_l","rotation":[-0.0003725291171576828,2.6529658498475328e-05,0.00011510076728882268,0.9999999403953552],"scale":[1.0000001192092896,1,0.9999999403953552],"translation":[-7.952621672302485e-08,0.039227843284606934,-6.658956408500671e-08]},{"children":[19],"name":"thumb_02_l","rotation":[0.0008552098297514021,3.4580960345920175e-05,-0.0004894913290627301,0.9999995231628418],"scale":[0.9999999403953552,0.9999999403953552,0.9999998807907104],"translation":[3.096647560596466e-08,0.03956547752022743,4.470348358154297e-08]},{"children":[20],"name":"thumb_01_l","rotation":[0.30099326372146606,0.9291352033615112,0.21020159125328064,0.04388761520385742],"scale":[1.0000001192092896,1.0000003576278687,0.9999999403953552],"translation":[0.02139996737241745,0.027700098231434822,0.027399959042668343]},{"children":[5,9,13,17,21],"name":"hand_l","rotation":[-0.015807529911398888,-1.1919451026187744e-06,-1.5766429939390036e-08,0.9998750686645508],"scale":[1,0.9999999403953552,0.9999999403953552],"translation":[1.9040668064462807e-07,0.24042022228240967,-8.114966476568952e-10]},{"children":[22],"name":"lowerarm_l","rotation":[0.030938122421503067,4.257329419488087e-05,-1.2601921071109246e-06,0.9995213150978088],"scale":[1,0.9999999403953552,1],"translation":[-2.8537453999888385e-07,0.2511148750782013,-4.358298610895872e-09]},{"children":[23],"name":"upperarm_l","rotation":[0.16515183448791504,0.6876330375671387,-0.16469807922840118,0.68757563829422],"scale":[0.9999998807907104,0.9999997019767761,1],"translation":[-0.009641056880354881,0.18830479681491852,-0.039671871811151505]},{"children":[24],"name":"clavicle_l","rotation":[-0.5359424352645874,-0.3172529935836792,-0.3989512026309967,0.673018753528595],"scale":[0.9999998807907104,0.9999998211860657,0.9999999403953552],"translation":[0.03139999881386757,0.17371778190135956,0.06732846796512604]},{"name":"index_04_leaf_r","rotation":[9.313211868366977e-10,1,-6.87615036185584e-15,3.532567461661529e-06],"translation":[-5.1140887080691755e-09,0.02411005087196827,-7.014868685928377e-08]},{"children":[26],"name":"index_03_r","rotation":[-1.3491063821646776e-09,-5.351830090205567e-12,0.00018567591905593872,1],"translation":[-3.2523530535399914e-09,0.027911430224776268,4.6741831738472683e-08]},{"children":[27],"name":"index_02_r","rotation":[-6.5691265760392525e-09,-1.8778058219481863e-08,0.0005329573177732527,0.9999998807907104],"scale":[1,1.0000001192092896,1],"translation":[-1.1350493878126144e-09,0.03261232748627663,3.542716342508356e-08]},{"children":[28],"name":"index_01_r","rotation":[-0.009757907129824162,-0.7070369720458984,0.00975783634930849,0.7070419788360596],"scale":[1.0000001192092896,1.0000001192092896,1],"translation":[-0.00939988438040018,0.11500023305416107,0.03249998390674591]},{"name":"middle_04_leaf_r","rotation":[-1.2607913895708442e-15,1,-6.16639579025316e-14,3.532567461661529e-06],"translation":[-6.2118488131091e-09,0.030519910156726837,1.4225783218080323e-07]},{"children":[30],"name":"middle_03_r","rotation":[-1.0315327259036167e-08,-3.5384844360164536e-11,0.001419719192199409,0.9999989867210388],"scale":[0.9999998807907104,0.9999998211860657,1],"translation":[-6.213667802512646e-09,0.030116695910692215,5.201144404054503e-09]},{"children":[31],"name":"middle_02_r","rotation":[1.6909162070533057e-08,-1.8909863896965362e-08,-0.002052685944363475,0.9999979138374329],"scale":[1,0.9999999403953552,1],"translation":[-7.147718861233443e-09,0.03752622380852699,3.2286607165588066e-08]},{"children":[32],"name":"middle_01_r","rotation":[-0.013192466460168362,-0.7069811820983887,0.01319236308336258,0.7069862484931946],"scale":[1,0.9999999403953552,0.9999999403953552],"translation":[-0.006999839097261429,0.11260008066892624,0.006999989040195942]},{"name":"pinky_04_leaf_r","rotation":[5.960464477539063e-08,1,4.4306968033716587e-13,3.532567461661529e-06],"scale":[0.9999999403953552,0.9999999403953552,1],"translation":[3.3915057429112494e-09,0.021523205563426018,7.597546414217504e-08]},{"children":[34],"name":"pinky_03_r","rotation":[3.384167168718477e-09,9.44933107455137e-12,-0.0004658075631596148,0.9999998807907104],"translation":[3.3933247323147953e-09,0.027430757880210876,8.167276632775611e-08]},{"children":[35],"name":"pinky_02_r","rotation":[-1.572714403152986e-08,-1.881363864697505e-08,0.0015674792230129242,0.9999988079071045],"translation":[-1.302942109759897e-08,0.03163112327456474,2.917738584073959e-07]},{"children":[36],"name":"pinky_01_r","rotation":[-0.015652284026145935,-0.7069309949874878,0.01565217599272728,0.7069360613822937],"scale":[1,0.9999998807907104,0.9999999403953552],"translation":[-0.008999803103506565,0.09510011225938797,-0.04250001534819603]},{"name":"ring_04_leaf_r","rotation":[-6.984932632292384e-10,1,-1.95393094404501e-15,3.65177675121231e-06],"translation":[-2.6557245291769505e-10,0.02910155989229679,-1.0399578798114817e-07]},{"children":[38],"name":"ring_03_r","rotation":[-2.5423513960731725e-08,-8.901505921254937e-11,0.0033875976223498583,0.9999942779541016],"translation":[8.81482264958322e-09,0.028300359845161438,9.097110620359672e-08]},{"children":[39],"name":"ring_02_r","rotation":[1.7242873795453306e-08,-1.850507835854387e-08,-0.002399709541350603,0.9999971389770508],"scale":[1,0.9999999403953552,1],"translation":[-1.4379111235029995e-09,0.036001384258270264,-1.2197114074297133e-07]},{"children":[40],"name":"ring_01_r","rotation":[-0.0029461721424013376,-0.7070980668067932,0.0029461507219821215,0.7071032524108887],"scale":[1,1.0000001192092896,1],"translation":[-0.007300002500414848,0.1062002182006836,-0.02040000446140766]},{"name":"thumb_04_leaf_r","rotation":[-5.3590618165344495e-08,-0.4282083213329315,2.0096482700182605e-08,0.9036800265312195],"translation":[-8.34115780889988e-08,0.034599725157022476,1.3224780559539795e-07]},{"children":[42],"name":"thumb_03_r","rotation":[-0.00037287743180058897,-2.6467261704965495e-05,-0.00011419040674809366,0.9999999403953552],"scale":[1,1,0.9999998807907104],"translation":[3.070454113185406e-08,0.03922786936163902,-3.958120942115784e-08]},{"children":[43],"name":"thumb_02_r","rotation":[0.0008556344546377659,-3.4509244869695976e-05,0.0004887956310994923,0.9999995231628418],"scale":[0.9999999403953552,0.9999999403953552,1],"translation":[9.21427272260189e-08,0.03956546261906624,-1.7229467630386353e-08]},{"children":[44],"name":"thumb_01_r","rotation":[0.30099308490753174,-0.9291352033615112,-0.21020175516605377,0.04388759285211563],"scale":[1.0000001192092896,1,1],"translation":[-0.0213998481631279,0.027699995785951614,0.02739991433918476]},{"children":[29,33,37,41,45],"name":"hand_r","rotation":[-0.015807531774044037,1.2515459957285202e-06,1.670875171555508e-08,0.9998750686645508],"scale":[1,0.9999998807907104,0.9999999403953552],"translation":[-8.156496278388659e-08,0.2404201477766037,3.933564585167915e-09]},{"children":[46],"name":"lowerarm_r","rotation":[0.030938122421503067,-4.25641774199903e-05,1.244894747287617e-06,0.9995213150978088],"translation":[2.8722058686980745e-07,0.25111499428749084,2.5684130378067493e-09]},{"children":[47],"name":"upperarm_r","rotation":[0.16515186429023743,-0.6876330971717834,0.16469812393188477,0.6875755786895752],"scale":[0.9999998807907104,0.9999998807907104,1],"translation":[0.009641069918870926,0.18830478191375732,-0.039671868085861206]},{"children":[48],"name":"clavicle_r","rotation":[-0.5359424352645874,0.3172529935836792,0.39895111322402954,0.673018753528595],"scale":[0.9999998807907104,0.9999998211860657,1],"translation":[-0.031400006264448166,0.17371778190135956,0.06732846051454544]},{"children":[1,25,49],"name":"spine_03","rotation":[-0.12418895214796066,-6.394203211357308e-08,-1.540507987840556e-08,0.992258608341217],"scale":[1,0.9999999403953552,1],"translation":[7.213073386735762e-15,0.13313379883766174,-3.585591912269592e-08]},{"children":[50],"name":"spine_02","rotation":[-0.03958539292216301,6.066800040116505e-08,-5.057856800050331e-09,0.9992161989212036],"translation":[8.606587427603066e-16,0.10634986311197281,-6.28642737865448e-09]},{"children":[51],"name":"spine_01","rotation":[-0.09185613691806793,-4.080497717495746e-08,-9.923536659073307e-09,0.9957723021507263],"translation":[9.225834580615846e-15,0.12809231877326965,-5.681067705154419e-08]},{"name":"ball_leaf_l","rotation":[-1.4901155864777138e-08,-1.0219596191518576e-07,-1.5228389253749727e-15,1],"translation":[-1.0557273277811419e-08,0.0788998231291771,7.835847526393991e-10]},{"children":[53],"name":"ball_l","rotation":[9.1912717437026e-08,0.9731196165084839,-0.23030045628547668,1.8947336855035246e-07],"scale":[1,0.9999999403953552,1],"translation":[2.750892846847819e-10,0.15907368063926697,-2.536358323368404e-08]},{"children":[54],"name":"foot_l","rotation":[-0.5721680521965027,2.3739059429317422e-07,-1.7414150477179646e-07,0.8201364278793335],"scale":[1,0.9999999403953552,0.9999999403953552],"translation":[-1.6341214603698972e-08,0.4587884247303009,-4.237882045288188e-09]},{"children":[55],"name":"calf_l","rotation":[0.055988989770412445,-7.941360458119107e-09,-3.810356474787113e-09,0.998431384563446],"translation":[-1.4058905151159706e-08,0.42880013585090637,6.209721625793918e-11]},{"children":[56],"name":"thigh_l","rotation":[0.9898310303688049,-1.3477942317763336e-08,8.943679574713315e-08,0.14224842190742493],"scale":[1,1,1.000000238418579],"translation":[0.09059999883174896,0.02317694015800953,0.00048784399405121803]},{"name":"ball_leaf_r","rotation":[1.4901161193847656e-08,-1.0219591217719426e-07,1.5228375489464334e-15,1],"translation":[-3.1066960115566644e-09,0.0788997933268547,-7.835945226020158e-10]},{"children":[58],"name":"ball_r","rotation":[9.191270322617129e-08,0.9731195569038391,-0.23030051589012146,1.8947336855035246e-07],"scale":[1,0.9999998211860657,0.9999997615814209],"translation":[2.750963901121395e-10,0.1590736210346222,-1.3751972005593416e-08]},{"children":[59],"name":"foot_r","rotation":[-0.5721679329872131,2.3739053744975536e-07,-1.741414479283776e-07,0.8201364874839783],"scale":[1,0.9999998807907104,1],"translation":[1.346110689581792e-08,0.4587884545326233,7.031838222815168e-09]},{"children":[60],"name":"calf_r","rotation":[0.05598898604512215,-7.941362234475946e-09,-3.810357807054743e-09,0.998431384563446],"translation":[-6.608325442414298e-09,0.42880013585090637,7.382456868043619e-10]},{"children":[61],"name":"thigh_r","rotation":[0.9898310303688049,-1.3477936100514398e-08,8.943683837969729e-08,0.14224840700626373],"scale":[1,1,1.0000005960464478],"translation":[-0.09059999883174896,0.02317694015800953,0.0004878169856965542]},{"children":[52,57,62],"name":"pelvis","rotation":[0.8005710244178772,4.4646718322383094e-08,5.964722049611737e-08,0.5992379188537598],"translation":[0,0.042999982833862305,0.9490999579429626]},{"children":[63],"name":"root","rotation":[-0.7071067690849304,0,0,0.7071067690849304]},{"mesh":0,"name":"Male_Ranger_Acc_Pauldron","skin":0},{"mesh":1,"name":"Male_Ranger_Arms","skin":0},{"mesh":2,"name":"Male_Ranger_Arms_Bracer","skin":0},{"mesh":3,"name":"Male_Ranger_Body","skin":0},{"mesh":4,"name":"Male_Ranger_Body_Belt_1","skin":0},{"mesh":5,"name":"Male_Ranger_Body_Belt_2","skin":0},{"mesh":6,"name":"Male_Ranger_Feet_Boots","skin":0},{"mesh":7,"name":"Male_Ranger_Head_Hood","skin":0},{"mesh":8,"name":"Male_Ranger_Legs","skin":0},{"children":[65,66,67,68,69,70,71,72,73,64],"name":"Armature.001"}],"materials":[{"doubleSided":true,"name":"MI_Ranger","normalTexture":{"index":0},"pbrMetallicRoughness":{"baseColorTexture":{"index":1},"metallicRoughnessTexture":{"index":2}}},{"doubleSided":true,"name":"MI_Ranger.001","normalTexture":{"index":3},"pbrMetallicRoughness":{"baseColorTexture":{"index":4},"metallicRoughnessTexture":{"index":5}}},{"doubleSided":true,"name":"MI_Regular_Male","normalTexture":{"index":6},"pbrMetallicRoughness":{"baseColorTexture":{"index":7},"metallicFactor":0,"metallicRoughnessTexture":{"index":8}}}],"meshes":[{"name":"Male_Ranger_Acc_Pauldron","primitives":[{"attributes":{"POSITION":0,"NORMAL":1,"TEXCOORD_0":2,"JOINTS_0":3,"WEIGHTS_0":4},"indices":5,"material":0}]},{"name":"Male_Ranger_Arms","primitives":[{"attributes":{"POSITION":7,"NORMAL":8,"TEXCOORD_0":9,"TEXCOORD_1":10,"COLOR_0":11,"COLOR_1":12,"JOINTS_0":13,"WEIGHTS_0":14},"indices":15,"material":1},{"attributes":{"POSITION":16,"NORMAL":17,"TEXCOORD_0":18,"TEXCOORD_1":19,"COLOR_0":20,"COLOR_1":21,"JOINTS_0":22,"WEIGHTS_0":23},"indices":24,"material":2}]},{"name":"Male_Ranger_Arms_Bracer","primitives":[{"attributes":{"POSITION":25,"NORMAL":26,"TEXCOORD_0":27,"COLOR_0":28,"COLOR_1":29,"JOINTS_0":30,"WEIGHTS_0":31},"indices":32,"material":1}]},{"name":"Male_Ranger_Body","primitives":[{"attributes":{"POSITION":33,"NORMAL":34,"TEXCOORD_0":35,"COLOR_0":36,"COLOR_1":37,"JOINTS_0":38,"WEIGHTS_0":39},"indices":40,"material":1}]},{"name":"Male_Ranger_Body_Belt_1","primitives":[{"attributes":{"POSITION":41,"NORMAL":42,"TEXCOORD_0":43,"JOINTS_0":44,"WEIGHTS_0":45},"indices":46,"material":0}]},{"name":"Male_Ranger_Body_Belt_1.001","primitives":[{"attributes":{"POSITION":47,"NORMAL":48,"TEXCOORD_0":49,"JOINTS_0":50,"WEIGHTS_0":51},"indices":52,"material":0}]},{"name":"Male_Ranger_Feet_Boots","primitives":[{"attributes":{"POSITION":53,"NORMAL":54,"TEXCOORD_0":55,"COLOR_0":56,"COLOR_1":57,"JOINTS_0":58,"WEIGHTS_0":59},"indices":60,"material":1}]},{"name":"Male_Ranger_Head_Hood","primitives":[{"attributes":{"POSITION":61,"NORMAL":62,"TEXCOORD_0":63,"COLOR_0":64,"COLOR_1":65,"JOINTS_0":66,"WEIGHTS_0":67},"indices":68,"material":1}]},{"name":"Male_Ranger_Legs","primitives":[{"attributes":{"POSITION":69,"NORMAL":70,"TEXCOORD_0":71,"COLOR_0":72,"COLOR_1":73,"JOINTS_0":74,"WEIGHTS_0":75},"indices":76,"material":1}]}],"textures":[{"sampler":0,"source":0},{"sampler":0,"source":1},{"sampler":0,"source":2},{"sampler":0,"source":0},{"sampler":0,"source":1},{"sampler":0,"source":2},{"sampler":0,"source":3},{"sampler":0,"source":4},{"sampler":0,"source":5}],"images":[{"mimeType":"image/png","name":"T_Ranger_Normal","uri":"../T_Ranger_Normal.png"},{"mimeType":"image/png","name":"T_Ranger_BaseColor","uri":"../T_Ranger_BaseColor.png"},{"mimeType":"image/png","name":"T_Ranger_ORM","uri":"../T_Ranger_ORM.png"},{"mimeType":"image/png","name":"T_Regular_Male_Normal","uri":"../T_Regular_Male_Normal.png"},{"mimeType":"image/png","name":"T_Regular_Male_Dark_BaseColor","uri":"../T_Regular_Male_Dark_BaseColor.png"},{"mimeType":"image/png","name":"T_Regular_Male_Roughness","uri":"../T_Regular_Male_Roughness.png"}],"skins":[{"inverseBindMatrices":6,"joints":[64,63,52,51,50,1,0,25,24,23,22,5,4,3,2,9,8,7,6,13,12,11,10,17,16,15,14,21,20,19,18,49,48,47,46,29,28,27,26,33,32,31,30,37,36,35,34,41,40,39,38,45,44,43,42,57,56,55,54,53,62,61,60,59,58],"name":"Armature.001"}],"accessors":[{"bufferView":0,"componentType":5126,"count":18413,"max":[0.36886268854141235,1.6066787242889404,0.04096575453877449],"min":[0.05886780470609665,1.3891446590423584,-0.1793975532054901],"type":"VEC3"},{"bufferView":1,"componentType":5126,"count":18413,"type":"VEC3"},{"bufferView":2,"componentType":5126,"count":18413,"type":"VEC2"},{"bufferView":3,"componentType":5121,"count":18413,"type":"VEC4"},{"bufferView":4,"componentType":5126,"count":18413,"type":"VEC4"},{"bufferView":5,"componentType":5123,"count":99072,"type":"SCALAR"},{"bufferView":6,"componentType":5126,"count":65,"type":"MAT4"},{"bufferView":7,"componentType":5126,"count":37800,"max":[0.9105883240699768,1.5623046159744263,0.09758423268795013],"min":[-0.9105883240699768,1.304405689239502,-0.17865756154060364],"type":"VEC3"},{"bufferView":8,"componentType":5126,"count":37800,"type":"VEC3"},{"bufferView":9,"componentType":5126,"count":37800,"type":"VEC2"},{"bufferView":10,"componentType":5126,"count":37800,"type":"VEC2"},{"bufferView":11,"componentType":5126,"count":37800,"type":"VEC3"},{"bufferView":12,"componentType":5123,"count":37800,"normalized":true,"type":"VEC4"},{"bufferView":13,"componentType":5121,"count":37800,"type":"VEC4"},{"bufferView":14,"componentType":5126,"count":37800,"type":"VEC4"},{"bufferView":15,"componentType":5123,"count":219456,"type":"SCALAR"},{"bufferView":16,"componentType":5126,"count":23564,"max":[0.8994147777557373,1.4645613431930542,0.015845395624637604],"min":[-0.8994147777557373,1.3667066097259521,-0.12017258256673813],"type":"VEC3"},{"bufferView":17,"componentType":5126,"count":23564,"type":"VEC3"},{"bufferView":18,"componentType":5126,"count":23564,"type":"VEC2"},{"bufferView":19,"componentType":5126,"count":23564,"type":"VEC2"},{"bufferView":20,"componentType":5126,"count":23564,"type":"VEC3"},{"bufferView":21,"componentType":5123,"count":23564,"normalized":true,"type":"VEC4"},{"bufferView":22,"componentType":5121,"count":23564,"type":"VEC4"},{"bufferView":23,"componentType":5126,"count":23564,"type":"VEC4"},{"bufferView":24,"componentType":5123,"count":135360,"type":"SCALAR"},{"bufferView":25,"componentType":5126,"count":63107,"max":[0.7708262205123901,1.5308936834335327,0.011386957950890064],"min":[-0.7708259224891663,1.352230429649353,-0.15632246434688568],"type":"VEC3"},{"bufferView":26,"componentType":5126,"count":63107,"type":"VEC3"},{"bufferView":27,"componentType":5126,"count":63107,"type":"VEC2"},{"bufferView":28,"componentType":5126,"count":63107,"type":"VEC3"},{"bufferView":29,"componentType":5123,"count":63107,"normalized":true,"type":"VEC4"},{"bufferView":30,"componentType":5121,"count":63107,"type":"VEC4"},{"bufferView":31,"componentType":5126,"count":63107,"type":"VEC4"},{"bufferView":32,"componentType":5123,"count":261792,"type":"SCALAR"},{"bufferView":33,"componentType":5126,"count":44503,"max":[0.27731630206108093,1.6776487827301025,0.14382261037826538],"min":[-0.27731674909591675,0.8576886653900146,-0.20595386624336243],"type":"VEC3"},{"bufferView":34,"componentType":5126,"count":44503,"type":"VEC3"},{"bufferView":35,"componentType":5126,"count":44503,"type":"VEC2"},{"bufferView":36,"componentType":5126,"count":44503,"type":"VEC3"},{"bufferView":37,"componentType":5123,"count":44503,"normalized":true,"type":"VEC4"},{"bufferView":38,"componentType":5121,"count":44503,"type":"VEC4"},{"bufferView":39,"componentType":5126,"count":44503,"type":"VEC4"},{"bufferView":40,"componentType":5123,"count":215856,"type":"SCALAR"},{"bufferView":41,"componentType":5126,"count":15675,"max":[0.16937491297721863,1.30498468875885,0.13507802784442902],"min":[-0.15877537429332733,1.1030133962631226,-0.1470024585723877],"type":"VEC3"},{"bufferView":42,"componentType":5126,"count":15675,"type":"VEC3"},{"bufferView":43,"componentType":5126,"count":15675,"type":"VEC2"},{"bufferView":44,"componentType":5121,"count":15675,"type":"VEC4"},{"bufferView":45,"componentType":5126,"count":15675,"type":"VEC4"},{"bufferView":46,"componentType":5123,"count":57888,"type":"SCALAR"},{"bufferView":47,"componentType":5126,"count":14760,"max":[0.164626806974411,1.2512043714523315,0.1366679072380066],"min":[-0.16403374075889587,1.0529931783676147,-0.12143798917531967],"type":"VEC3"},{"bufferView":48,"componentType":5126,"count":14760,"type":"VEC3"},{"bufferView":49,"componentType":5126,"count":14760,"type":"VEC2"},{"bufferView":50,"componentType":5121,"count":14760,"type":"VEC4"},{"bufferView":51,"componentType":5126,"count":14760,"type":"VEC4"},{"bufferView":52,"componentType":5123,"count":57888,"type":"SCALAR"},{"bufferView":53,"componentType":5126,"count":144747,"max":[0.2367798388004303,0.6317908763885498,0.16754083335399628],"min":[-0.21284765005111694,-0.03615500032901764,-0.1796063780784607],"type":"VEC3"},{"bufferView":54,"componentType":5126,"count":144747,"type":"VEC3"},{"bufferView":55,"componentType":5126,"count":144747,"type":"VEC2"},{"bufferView":56,"componentType":5126,"count":144747,"type":"VEC3"},{"bufferView":57,"componentType":5123,"count":144747,"normalized":true,"type":"VEC4"},{"bufferView":58,"componentType":5121,"count":144747,"type":"VEC4"},{"bufferView":59,"componentType":5126,"count":144747,"type":"VEC4"},{"bufferView":60,"componentType":5125,"count":660384,"type":"SCALAR"},{"bufferView":61,"componentType":5126,"count":26302,"max":[0.18046587705612183,1.8650404214859009,0.14104415476322174],"min":[-0.16197770833969116,1.4454212188720703,-0.1934669464826584],"type":"VEC3"},{"bufferView":62,"componentType":5126,"count":26302,"type":"VEC3"},{"bufferView":63,"componentType":5126,"count":26302,"type":"VEC2"},{"bufferView":64,"componentType":5126,"count":26302,"type":"VEC3"},{"bufferView":65,"componentType":5123,"count":26302,"normalized":true,"type":"VEC4"},{"bufferView":66,"componentType":5121,"count":26302,"type":"VEC4"},{"bufferView":67,"componentType":5126,"count":26302,"type":"VEC4"},{"bufferView":68,"componentType":5123,"count":153792,"type":"SCALAR"},{"bufferView":69,"componentType":5126,"count":13862,"max":[0.2129015475511551,1.1309770345687866,0.11870244145393372],"min":[-0.2129015475511551,0.3510679006576538,-0.17544043064117432],"type":"VEC3"},{"bufferView":70,"componentType":5126,"count":13862,"type":"VEC3"},{"bufferView":71,"componentType":5126,"count":13862,"type":"VEC2"},{"bufferView":72,"componentType":5126,"count":13862,"type":"VEC3"},{"bufferView":73,"componentType":5123,"count":13862,"normalized":true,"type":"VEC4"},{"bufferView":74,"componentType":5121,"count":13862,"type":"VEC4"},{"bufferView":75,"componentType":5126,"count":13862,"type":"VEC4"},{"bufferView":76,"componentType":5123,"count":81216,"type":"SCALAR"}],"bufferViews":[{"buffer":0,"byteLength":220956,"byteOffset":0,"target":34962},{"buffer":0,"byteLength":220956,"byteOffset":220956,"target":34962},{"buffer":0,"byteLength":147304,"byteOffset":441912,"target":34962},{"buffer":0,"byteLength":73652,"byteOffset":589216,"target":34962},{"buffer":0,"byteLength":294608,"byteOffset":662868,"target":34962},{"buffer":0,"byteLength":198144,"byteOffset":957476,"target":34963},{"buffer":0,"byteLength":4160,"byteOffset":1155620},{"buffer":0,"byteLength":453600,"byteOffset":1159780,"target":34962},{"buffer":0,"byteLength":453600,"byteOffset":1613380,"target":34962},{"buffer":0,"byteLength":302400,"byteOffset":2066980,"target":34962},{"buffer":0,"byteLength":302400,"byteOffset":2369380,"target":34962},{"buffer":0,"byteLength":453600,"byteOffset":2671780,"target":34962},{"buffer":0,"byteLength":302400,"byteOffset":3125380,"target":34962},{"buffer":0,"byteLength":151200,"byteOffset":3427780,"target":34962},{"buffer":0,"byteLength":604800,"byteOffset":3578980,"target":34962},{"buffer":0,"byteLength":438912,"byteOffset":4183780,"target":34963},{"buffer":0,"byteLength":282768,"byteOffset":4622692,"target":34962},{"buffer":0,"byteLength":282768,"byteOffset":4905460,"target":34962},{"buffer":0,"byteLength":188512,"byteOffset":5188228,"target":34962},{"buffer":0,"byteLength":188512,"byteOffset":5376740,"target":34962},{"buffer":0,"byteLength":282768,"byteOffset":5565252,"target":34962},{"buffer":0,"byteLength":188512,"byteOffset":5848020,"target":34962},{"buffer":0,"byteLength":94256,"byteOffset":6036532,"target":34962},{"buffer":0,"byteLength":377024,"byteOffset":6130788,"target":34962},{"buffer":0,"byteLength":270720,"byteOffset":6507812,"target":34963},{"buffer":0,"byteLength":757284,"byteOffset":6778532,"target":34962},{"buffer":0,"byteLength":757284,"byteOffset":7535816,"target":34962},{"buffer":0,"byteLength":504856,"byteOffset":8293100,"target":34962},{"buffer":0,"byteLength":757284,"byteOffset":8797956,"target":34962},{"buffer":0,"byteLength":504856,"byteOffset":9555240,"target":34962},{"buffer":0,"byteLength":252428,"byteOffset":10060096,"target":34962},{"buffer":0,"byteLength":1009712,"byteOffset":10312524,"target":34962},{"buffer":0,"byteLength":523584,"byteOffset":11322236,"target":34963},{"buffer":0,"byteLength":534036,"byteOffset":11845820,"target":34962},{"buffer":0,"byteLength":534036,"byteOffset":12379856,"target":34962},{"buffer":0,"byteLength":356024,"byteOffset":12913892,"target":34962},{"buffer":0,"byteLength":534036,"byteOffset":13269916,"target":34962},{"buffer":0,"byteLength":356024,"byteOffset":13803952,"target":34962},{"buffer":0,"byteLength":178012,"byteOffset":14159976,"target":34962},{"buffer":0,"byteLength":712048,"byteOffset":14337988,"target":34962},{"buffer":0,"byteLength":431712,"byteOffset":15050036,"target":34963},{"buffer":0,"byteLength":188100,"byteOffset":15481748,"target":34962},{"buffer":0,"byteLength":188100,"byteOffset":15669848,"target":34962},{"buffer":0,"byteLength":125400,"byteOffset":15857948,"target":34962},{"buffer":0,"byteLength":62700,"byteOffset":15983348,"target":34962},{"buffer":0,"byteLength":250800,"byteOffset":16046048,"target":34962},{"buffer":0,"byteLength":115776,"byteOffset":16296848,"target":34963},{"buffer":0,"byteLength":177120,"byteOffset":16412624,"target":34962},{"buffer":0,"byteLength":177120,"byteOffset":16589744,"target":34962},{"buffer":0,"byteLength":118080,"byteOffset":16766864,"target":34962},{"buffer":0,"byteLength":59040,"byteOffset":16884944,"target":34962},{"buffer":0,"byteLength":236160,"byteOffset":16943984,"target":34962},{"buffer":0,"byteLength":115776,"byteOffset":17180144,"target":34963},{"buffer":0,"byteLength":1736964,"byteOffset":17295920,"target":34962},{"buffer":0,"byteLength":1736964,"byteOffset":19032884,"target":34962},{"buffer":0,"byteLength":1157976,"byteOffset":20769848,"target":34962},{"buffer":0,"byteLength":1736964,"byteOffset":21927824,"target":34962},{"buffer":0,"byteLength":1157976,"byteOffset":23664788,"target":34962},{"buffer":0,"byteLength":578988,"byteOffset":24822764,"target":34962},{"buffer":0,"byteLength":2315952,"byteOffset":25401752,"target":34962},{"buffer":0,"byteLength":2641536,"byteOffset":27717704,"target":34963},{"buffer":0,"byteLength":315624,"byteOffset":30359240,"target":34962},{"buffer":0,"byteLength":315624,"byteOffset":30674864,"target":34962},{"buffer":0,"byteLength":210416,"byteOffset":30990488,"target":34962},{"buffer":0,"byteLength":315624,"byteOffset":31200904,"target":34962},{"buffer":0,"byteLength":210416,"byteOffset":31516528,"target":34962},{"buffer":0,"byteLength":105208,"byteOffset":31726944,"target":34962},{"buffer":0,"byteLength":420832,"byteOffset":31832152,"target":34962},{"buffer":0,"byteLength":307584,"byteOffset":32252984,"target":34963},{"buffer":0,"byteLength":166344,"byteOffset":32560568,"target":34962},{"buffer":0,"byteLength":166344,"byteOffset":32726912,"target":34962},{"buffer":0,"byteLength":110896,"byteOffset":32893256,"target":34962},{"buffer":0,"byteLength":166344,"byteOffset":33004152,"target":34962},{"buffer":0,"byteLength":110896,"byteOffset":33170496,"target":34962},{"buffer":0,"byteLength":55448,"byteOffset":33281392,"target":34962},{"buffer":0,"byteLength":221792,"byteOffset":33336840,"target":34962},{"buffer":0,"byteLength":162432,"byteOffset":33558632,"target":34963}],"samplers":[{"magFilter":9729,"minFilter":9987}],"buffers":[{"byteLength":33721064,"uri":"Male_Ranger_Fitted.bin"}]}